<?xml version="1.0" encoding="UTF-8"?>
<svg width="512" height="512" viewBox="0 0 512 512" fill="none" xmlns="http://www.w3.org/2000/svg">
    <rect width="512" height="512" rx="128" fill="#4F46E5"/>
    <path d="M256 128C207.4 128 168 167.4 168 216V232H152C138.7 232 128 242.7 128 256V384C128 397.3 138.7 408 152 408H360C373.3 408 384 397.3 384 384V256C384 242.7 373.3 232 360 232H344V216C344 167.4 304.6 128 256 128zM304 232H208V216C208 189.5 229.5 168 256 168C282.5 168 304 189.5 304 216V232z" fill="white"/>
</svg>
